<svg width="614" height="236" viewBox="0 0 614 236" fill="none" xmlns="http://www.w3.org/2000/svg">
<path d="M4.4169 4.27273V13H3.36009V5.38068H3.30895L1.17827 6.79545V5.72159L3.36009 4.27273H4.4169ZM9.65412 13.1193C9.15412 13.1193 8.70384 13.0199 8.30327 12.821C7.9027 12.6222 7.58168 12.3494 7.3402 12.0028C7.09872 11.6562 6.96662 11.2614 6.94389 10.8182H7.96662C8.00639 11.2131 8.18537 11.5398 8.50355 11.7983C8.82457 12.054 9.2081 12.1818 9.65412 12.1818C10.0121 12.1818 10.3303 12.098 10.6087 11.9304C10.8899 11.7628 11.1101 11.5327 11.2692 11.2401C11.4311 10.9446 11.5121 10.6108 11.5121 10.2386C11.5121 9.85795 11.4283 9.51847 11.2607 9.22017C11.0959 8.91903 10.8686 8.68182 10.5788 8.50852C10.2891 8.33523 9.9581 8.24716 9.58594 8.24432C9.31889 8.24148 9.04474 8.28267 8.76349 8.3679C8.48224 8.45028 8.25071 8.55682 8.06889 8.6875L7.08026 8.56818L7.60866 4.27273H12.1428V5.21023H8.49503L8.18821 7.78409H8.23935C8.41832 7.64205 8.64276 7.52415 8.91264 7.4304C9.18253 7.33665 9.46378 7.28977 9.75639 7.28977C10.2905 7.28977 10.7663 7.41761 11.1839 7.6733C11.6044 7.92614 11.9339 8.27273 12.1726 8.71307C12.4141 9.15341 12.5348 9.65625 12.5348 10.2216C12.5348 10.7784 12.4098 11.2756 12.1598 11.7131C11.9126 12.1477 11.5717 12.4915 11.1371 12.7443C10.7024 12.9943 10.2081 13.1193 9.65412 13.1193ZM14.381 4.27273H15.6424L18.6083 11.517H18.7106L21.6765 4.27273H22.9379V13H21.9492V6.36932H21.864L19.1367 13H18.1822L15.4549 6.36932H15.3697V13H14.381V4.27273Z" fill="black" fill-opacity="0.4"/>
<path d="M4.21768 51.2727V60H3.16087V52.3807H3.10973L0.979048 53.7955V52.7216L3.16087 51.2727H4.21768ZM9.57422 60.1193C8.93217 60.1193 8.3853 59.9446 7.93359 59.5952C7.48189 59.2429 7.13672 58.733 6.89808 58.0653C6.65945 57.3949 6.54013 56.5852 6.54013 55.6364C6.54013 54.6932 6.65945 53.8878 6.89808 53.2202C7.13956 52.5497 7.48615 52.0384 7.93786 51.6861C8.3924 51.331 8.93786 51.1534 9.57422 51.1534C10.2106 51.1534 10.7546 51.331 11.2063 51.6861C11.6609 52.0384 12.0075 52.5497 12.2461 53.2202C12.4876 53.8878 12.6083 54.6932 12.6083 55.6364C12.6083 56.5852 12.489 57.3949 12.2504 58.0653C12.0117 58.733 11.6665 59.2429 11.2148 59.5952C10.7631 59.9446 10.2163 60.1193 9.57422 60.1193ZM9.57422 59.1818C10.2106 59.1818 10.7049 58.875 11.0572 58.2614C11.4094 57.6477 11.5856 56.7727 11.5856 55.6364C11.5856 54.8807 11.5046 54.2372 11.3427 53.706C11.1836 53.1747 10.9535 52.7699 10.6523 52.4915C10.354 52.2131 9.99467 52.0739 9.57422 52.0739C8.94354 52.0739 8.45064 52.3849 8.09553 53.0071C7.74041 53.6264 7.56286 54.5028 7.56286 55.6364C7.56286 56.392 7.6424 57.0341 7.80149 57.5625C7.96058 58.0909 8.18928 58.4929 8.48757 58.7685C8.78871 59.044 9.15092 59.1818 9.57422 59.1818ZM14.381 51.2727H15.6424L18.6083 58.517H18.7106L21.6765 51.2727H22.9379V60H21.9492V53.3693H21.864L19.1367 60H18.1822L15.4549 53.3693H15.3697V60H14.381V51.2727Z" fill="black" fill-opacity="0.4"/>
<path d="M9.65412 107.119C9.15412 107.119 8.70384 107.02 8.30327 106.821C7.9027 106.622 7.58168 106.349 7.3402 106.003C7.09872 105.656 6.96662 105.261 6.94389 104.818H7.96662C8.00639 105.213 8.18537 105.54 8.50355 105.798C8.82457 106.054 9.2081 106.182 9.65412 106.182C10.0121 106.182 10.3303 106.098 10.6087 105.93C10.8899 105.763 11.1101 105.533 11.2692 105.24C11.4311 104.945 11.5121 104.611 11.5121 104.239C11.5121 103.858 11.4283 103.518 11.2607 103.22C11.0959 102.919 10.8686 102.682 10.5788 102.509C10.2891 102.335 9.9581 102.247 9.58594 102.244C9.31889 102.241 9.04474 102.283 8.76349 102.368C8.48224 102.45 8.25071 102.557 8.06889 102.688L7.08026 102.568L7.60866 98.2727H12.1428V99.2102H8.49503L8.18821 101.784H8.23935C8.41832 101.642 8.64276 101.524 8.91264 101.43C9.18253 101.337 9.46378 101.29 9.75639 101.29C10.2905 101.29 10.7663 101.418 11.1839 101.673C11.6044 101.926 11.9339 102.273 12.1726 102.713C12.4141 103.153 12.5348 103.656 12.5348 104.222C12.5348 104.778 12.4098 105.276 12.1598 105.713C11.9126 106.148 11.5717 106.491 11.1371 106.744C10.7024 106.994 10.2081 107.119 9.65412 107.119ZM14.381 98.2727H15.6424L18.6083 105.517H18.7106L21.6765 98.2727H22.9379V107H21.9492V100.369H21.864L19.1367 107H18.1822L15.4549 100.369H15.3697V107H14.381V98.2727Z" fill="black" fill-opacity="0.4"/>
<path d="M11.7177 145.273V154H10.6609V146.381H10.6097L8.47905 147.795V146.722L10.6609 145.273H11.7177ZM14.381 145.273H15.6424L18.6083 152.517H18.7106L21.6765 145.273H22.9379V154H21.9492V147.369H21.864L19.1367 154H18.1822L15.4549 147.369H15.3697V154H14.381V145.273Z" fill="black" fill-opacity="0.4"/>
<path d="M20.25 201.119C19.608 201.119 19.0611 200.945 18.6094 200.595C18.1577 200.243 17.8125 199.733 17.5739 199.065C17.3352 198.395 17.2159 197.585 17.2159 196.636C17.2159 195.693 17.3352 194.888 17.5739 194.22C17.8153 193.55 18.1619 193.038 18.6136 192.686C19.0682 192.331 19.6136 192.153 20.25 192.153C20.8864 192.153 21.4304 192.331 21.8821 192.686C22.3366 193.038 22.6832 193.55 22.9219 194.22C23.1634 194.888 23.2841 195.693 23.2841 196.636C23.2841 197.585 23.1648 198.395 22.9261 199.065C22.6875 199.733 22.3423 200.243 21.8906 200.595C21.4389 200.945 20.892 201.119 20.25 201.119ZM20.25 200.182C20.8864 200.182 21.3807 199.875 21.733 199.261C22.0852 198.648 22.2614 197.773 22.2614 196.636C22.2614 195.881 22.1804 195.237 22.0185 194.706C21.8594 194.175 21.6293 193.77 21.3281 193.491C21.0298 193.213 20.6705 193.074 20.25 193.074C19.6193 193.074 19.1264 193.385 18.7713 194.007C18.4162 194.626 18.2386 195.503 18.2386 196.636C18.2386 197.392 18.3182 198.034 18.4773 198.562C18.6364 199.091 18.8651 199.493 19.1634 199.768C19.4645 200.044 19.8267 200.182 20.25 200.182Z" fill="black" fill-opacity="0.4"/>
<line x1="40.5" y1="15.5" x2="613.5" y2="15.5" stroke="black" stroke-opacity="0.05" stroke-linecap="round"/>
<line x1="40.5" y1="63" x2="613.5" y2="63" stroke="black" stroke-opacity="0.05" stroke-linecap="round"/>
<line x1="40.5" y1="110.5" x2="613.5" y2="110.5" stroke="black" stroke-opacity="0.05" stroke-linecap="round"/>
<line x1="40.5" y1="158" x2="613.5" y2="158" stroke="black" stroke-opacity="0.05" stroke-linecap="round"/>
<line x1="40.5" y1="205.5" x2="613.5" y2="205.5" stroke="black" stroke-opacity="0.2" stroke-linecap="round"/>
<path d="M69.6291 222.273H70.8904L73.8564 229.517H73.9586L76.9245 222.273H78.1859V231H77.1973V224.369H77.112L74.3848 231H73.4302L70.7029 224.369H70.6177V231H69.6291V222.273ZM82.8276 231.136C82.2367 231.136 81.7182 230.996 81.2722 230.714C80.829 230.433 80.4824 230.04 80.2324 229.534C79.9853 229.028 79.8617 228.437 79.8617 227.761C79.8617 227.08 79.9853 226.484 80.2324 225.976C80.4824 225.467 80.829 225.072 81.2722 224.791C81.7182 224.51 82.2367 224.369 82.8276 224.369C83.4185 224.369 83.9355 224.51 84.3787 224.791C84.8248 225.072 85.1713 225.467 85.4185 225.976C85.6685 226.484 85.7935 227.08 85.7935 227.761C85.7935 228.437 85.6685 229.028 85.4185 229.534C85.1713 230.04 84.8248 230.433 84.3787 230.714C83.9355 230.996 83.4185 231.136 82.8276 231.136ZM82.8276 230.233C83.2765 230.233 83.6458 230.118 83.9355 229.888C84.2253 229.658 84.4398 229.355 84.579 228.98C84.7182 228.605 84.7878 228.199 84.7878 227.761C84.7878 227.324 84.7182 226.916 84.579 226.538C84.4398 226.161 84.2253 225.855 83.9355 225.622C83.6458 225.389 83.2765 225.273 82.8276 225.273C82.3787 225.273 82.0094 225.389 81.7196 225.622C81.4299 225.855 81.2154 226.161 81.0762 226.538C80.937 226.916 80.8674 227.324 80.8674 227.761C80.8674 228.199 80.937 228.605 81.0762 228.98C81.2154 229.355 81.4299 229.658 81.7196 229.888C82.0094 230.118 82.3787 230.233 82.8276 230.233ZM88.3343 227.062V231H87.3287V224.455H88.3002V225.477H88.3855C88.5389 225.145 88.7718 224.878 89.0843 224.676C89.3968 224.472 89.8002 224.369 90.2946 224.369C90.7377 224.369 91.1255 224.46 91.4579 224.642C91.7903 224.821 92.0488 225.094 92.2335 225.46C92.4181 225.824 92.5105 226.284 92.5105 226.841V231H91.5048V226.909C91.5048 226.395 91.3713 225.994 91.1042 225.707C90.8372 225.418 90.4707 225.273 90.0048 225.273C89.6838 225.273 89.3968 225.342 89.144 225.482C88.894 225.621 88.6966 225.824 88.5517 226.091C88.4068 226.358 88.3343 226.682 88.3343 227.062Z" fill="black" fill-opacity="0.4"/>
<path d="M153.197 223.21V222.273H159.742V223.21H156.998V231H155.941V223.21H153.197ZM164.471 228.324V224.455H165.477V231H164.471V229.892H164.403C164.25 230.224 164.011 230.507 163.687 230.74C163.363 230.97 162.954 231.085 162.46 231.085C162.051 231.085 161.687 230.996 161.369 230.817C161.051 230.635 160.801 230.362 160.619 229.999C160.437 229.632 160.346 229.17 160.346 228.614V224.455H161.352V228.545C161.352 229.023 161.485 229.403 161.752 229.688C162.022 229.972 162.366 230.114 162.784 230.114C163.034 230.114 163.288 230.05 163.547 229.922C163.808 229.794 164.027 229.598 164.203 229.334C164.382 229.07 164.471 228.733 164.471 228.324ZM170.063 231.136C169.433 231.136 168.888 230.997 168.431 230.719C167.977 230.438 167.626 230.045 167.379 229.543C167.134 229.037 167.012 228.449 167.012 227.778C167.012 227.108 167.134 226.517 167.379 226.006C167.626 225.491 167.969 225.091 168.41 224.804C168.853 224.514 169.37 224.369 169.961 224.369C170.302 224.369 170.638 224.426 170.971 224.54C171.303 224.653 171.606 224.838 171.879 225.094C172.151 225.347 172.369 225.682 172.531 226.099C172.692 226.517 172.773 227.031 172.773 227.642V228.068H167.728V227.199H171.751C171.751 226.83 171.677 226.5 171.529 226.21C171.384 225.92 171.177 225.692 170.907 225.524C170.64 225.357 170.325 225.273 169.961 225.273C169.56 225.273 169.214 225.372 168.921 225.571C168.631 225.767 168.408 226.023 168.252 226.338C168.096 226.653 168.018 226.991 168.018 227.352V227.932C168.018 228.426 168.103 228.845 168.273 229.189C168.447 229.53 168.687 229.79 168.994 229.969C169.3 230.145 169.657 230.233 170.063 230.233C170.327 230.233 170.566 230.196 170.779 230.122C170.995 230.045 171.181 229.932 171.337 229.781C171.494 229.628 171.614 229.437 171.7 229.21L172.671 229.483C172.569 229.812 172.397 230.102 172.156 230.352C171.914 230.599 171.616 230.793 171.261 230.932C170.906 231.068 170.506 231.136 170.063 231.136Z" fill="black" fill-opacity="0.4"/>
<path d="M235.033 231L232.646 222.273H233.72L235.544 229.381H235.629L237.487 222.273H238.68L240.538 229.381H240.624L242.447 222.273H243.521L241.135 231H240.044L238.118 224.045H238.05L236.124 231H235.033ZM246.837 231.136C246.206 231.136 245.662 230.997 245.205 230.719C244.75 230.438 244.399 230.045 244.152 229.543C243.908 229.037 243.786 228.449 243.786 227.778C243.786 227.108 243.908 226.517 244.152 226.006C244.399 225.491 244.743 225.091 245.183 224.804C245.626 224.514 246.143 224.369 246.734 224.369C247.075 224.369 247.412 224.426 247.744 224.54C248.077 224.653 248.379 224.838 248.652 225.094C248.925 225.347 249.142 225.682 249.304 226.099C249.466 226.517 249.547 227.031 249.547 227.642V228.068H244.501V227.199H248.524C248.524 226.83 248.45 226.5 248.303 226.21C248.158 225.92 247.95 225.692 247.68 225.524C247.413 225.357 247.098 225.273 246.734 225.273C246.334 225.273 245.987 225.372 245.695 225.571C245.405 225.767 245.182 226.023 245.026 226.338C244.869 226.653 244.791 226.991 244.791 227.352V227.932C244.791 228.426 244.876 228.845 245.047 229.189C245.22 229.53 245.46 229.79 245.767 229.969C246.074 230.145 246.43 230.233 246.837 230.233C247.101 230.233 247.339 230.196 247.553 230.122C247.768 230.045 247.955 229.932 248.111 229.781C248.267 229.628 248.388 229.437 248.473 229.21L249.445 229.483C249.342 229.812 249.17 230.102 248.929 230.352C248.688 230.599 248.389 230.793 248.034 230.932C247.679 231.068 247.28 231.136 246.837 231.136ZM253.548 231.136C253.003 231.136 252.521 230.999 252.104 230.723C251.686 230.445 251.359 230.053 251.124 229.547C250.888 229.038 250.77 228.438 250.77 227.744C250.77 227.057 250.888 226.46 251.124 225.955C251.359 225.449 251.688 225.058 252.108 224.783C252.528 224.507 253.014 224.369 253.565 224.369C253.991 224.369 254.328 224.44 254.575 224.582C254.825 224.722 255.016 224.881 255.146 225.06C255.28 225.236 255.384 225.381 255.457 225.494H255.543V222.273H256.548V231H255.577V229.994H255.457C255.384 230.114 255.278 230.264 255.142 230.446C255.006 230.625 254.811 230.786 254.558 230.928C254.305 231.067 253.969 231.136 253.548 231.136ZM253.685 230.233C254.088 230.233 254.429 230.128 254.707 229.918C254.986 229.705 255.197 229.411 255.342 229.036C255.487 228.658 255.56 228.222 255.56 227.727C255.56 227.239 255.489 226.811 255.347 226.445C255.205 226.075 254.994 225.788 254.716 225.584C254.438 225.376 254.094 225.273 253.685 225.273C253.259 225.273 252.903 225.382 252.619 225.601C252.338 225.817 252.126 226.111 251.984 226.483C251.845 226.852 251.776 227.267 251.776 227.727C251.776 228.193 251.847 228.616 251.989 228.997C252.134 229.375 252.347 229.676 252.628 229.901C252.912 230.122 253.264 230.233 253.685 230.233Z" fill="black" fill-opacity="0.4"/>
<path d="M316.699 223.21V222.273H323.244V223.21H320.5V231H319.443V223.21H316.699ZM325.744 227.062V231H324.739V222.273H325.744V225.477H325.83C325.983 225.139 326.213 224.871 326.52 224.672C326.83 224.47 327.242 224.369 327.756 224.369C328.202 224.369 328.593 224.459 328.928 224.638C329.263 224.814 329.523 225.085 329.708 225.452C329.895 225.815 329.989 226.278 329.989 226.841V231H328.983V226.909C328.983 226.389 328.848 225.987 328.578 225.703C328.311 225.416 327.941 225.273 327.466 225.273C327.137 225.273 326.841 225.342 326.58 225.482C326.321 225.621 326.117 225.824 325.966 226.091C325.818 226.358 325.744 226.682 325.744 227.062ZM335.954 228.324V224.455H336.959V231H335.954V229.892H335.885C335.732 230.224 335.493 230.507 335.17 230.74C334.846 230.97 334.437 231.085 333.942 231.085C333.533 231.085 333.17 230.996 332.851 230.817C332.533 230.635 332.283 230.362 332.101 229.999C331.92 229.632 331.829 229.17 331.829 228.614V224.455H332.834V228.545C332.834 229.023 332.968 229.403 333.235 229.688C333.505 229.972 333.849 230.114 334.266 230.114C334.516 230.114 334.77 230.05 335.029 229.922C335.29 229.794 335.509 229.598 335.685 229.334C335.864 229.07 335.954 228.733 335.954 228.324Z" fill="black" fill-opacity="0.4"/>
<path d="M402.914 231V222.273H408.147V223.21H403.971V226.159H407.755V227.097H403.971V231H402.914ZM409.751 231V224.455H410.722V225.443H410.79C410.91 225.119 411.126 224.857 411.438 224.655C411.751 224.453 412.103 224.352 412.495 224.352C412.569 224.352 412.661 224.354 412.772 224.357C412.883 224.359 412.966 224.364 413.023 224.369V225.392C412.989 225.384 412.911 225.371 412.789 225.354C412.67 225.334 412.543 225.324 412.41 225.324C412.091 225.324 411.807 225.391 411.557 225.524C411.31 225.655 411.114 225.837 410.969 226.07C410.827 226.3 410.756 226.562 410.756 226.858V231H409.751ZM414.215 231V224.455H415.221V231H414.215ZM414.727 223.364C414.531 223.364 414.362 223.297 414.22 223.163C414.08 223.03 414.011 222.869 414.011 222.682C414.011 222.494 414.08 222.334 414.22 222.2C414.362 222.067 414.531 222 414.727 222C414.923 222 415.09 222.067 415.23 222.2C415.372 222.334 415.443 222.494 415.443 222.682C415.443 222.869 415.372 223.03 415.23 223.163C415.09 223.297 414.923 223.364 414.727 223.364Z" fill="black" fill-opacity="0.4"/>
<path d="M487.443 224.455C487.392 224.023 487.184 223.688 486.821 223.449C486.457 223.21 486.011 223.091 485.483 223.091C485.096 223.091 484.758 223.153 484.468 223.278C484.181 223.403 483.957 223.575 483.795 223.794C483.636 224.013 483.556 224.261 483.556 224.54C483.556 224.773 483.612 224.973 483.723 225.141C483.836 225.305 483.981 225.443 484.157 225.554C484.333 225.662 484.518 225.751 484.711 225.822C484.904 225.891 485.082 225.946 485.244 225.989L486.13 226.227C486.358 226.287 486.61 226.369 486.889 226.474C487.17 226.58 487.439 226.723 487.694 226.905C487.953 227.084 488.166 227.314 488.333 227.595C488.501 227.876 488.585 228.222 488.585 228.631C488.585 229.102 488.461 229.528 488.214 229.909C487.97 230.29 487.612 230.592 487.14 230.817C486.672 231.041 486.102 231.153 485.431 231.153C484.806 231.153 484.265 231.053 483.808 230.851C483.353 230.649 482.995 230.368 482.734 230.007C482.475 229.646 482.329 229.227 482.295 228.75H483.386C483.414 229.08 483.525 229.352 483.718 229.568C483.914 229.781 484.162 229.94 484.46 230.045C484.761 230.148 485.085 230.199 485.431 230.199C485.835 230.199 486.197 230.134 486.518 230.003C486.839 229.869 487.093 229.685 487.281 229.449C487.468 229.21 487.562 228.932 487.562 228.614C487.562 228.324 487.481 228.088 487.319 227.906C487.157 227.724 486.944 227.577 486.68 227.463C486.416 227.349 486.13 227.25 485.824 227.165L484.75 226.858C484.068 226.662 483.528 226.382 483.13 226.018C482.733 225.655 482.534 225.179 482.534 224.591C482.534 224.102 482.666 223.676 482.93 223.312C483.197 222.946 483.555 222.662 484.004 222.46C484.456 222.256 484.96 222.153 485.517 222.153C486.079 222.153 486.579 222.254 487.017 222.456C487.454 222.655 487.801 222.928 488.056 223.274C488.315 223.621 488.451 224.014 488.466 224.455H487.443ZM492.112 231.153C491.697 231.153 491.321 231.075 490.983 230.919C490.645 230.76 490.376 230.531 490.178 230.233C489.979 229.932 489.879 229.568 489.879 229.142C489.879 228.767 489.953 228.463 490.101 228.23C490.249 227.994 490.446 227.81 490.693 227.676C490.94 227.543 491.213 227.443 491.511 227.378C491.813 227.31 492.115 227.256 492.419 227.216C492.817 227.165 493.139 227.126 493.386 227.101C493.636 227.072 493.818 227.026 493.932 226.96C494.048 226.895 494.107 226.781 494.107 226.619V226.585C494.107 226.165 493.991 225.838 493.761 225.605C493.534 225.372 493.189 225.256 492.726 225.256C492.246 225.256 491.869 225.361 491.597 225.571C491.324 225.781 491.132 226.006 491.021 226.244L490.067 225.903C490.237 225.506 490.464 225.196 490.749 224.974C491.036 224.75 491.348 224.594 491.686 224.506C492.027 224.415 492.362 224.369 492.692 224.369C492.902 224.369 493.143 224.395 493.416 224.446C493.692 224.494 493.957 224.595 494.213 224.749C494.472 224.902 494.686 225.134 494.857 225.443C495.027 225.753 495.112 226.168 495.112 226.688V231H494.107V230.114H494.055C493.987 230.256 493.874 230.408 493.714 230.57C493.555 230.732 493.344 230.869 493.08 230.983C492.815 231.097 492.493 231.153 492.112 231.153ZM492.266 230.25C492.663 230.25 492.999 230.172 493.271 230.016C493.547 229.859 493.754 229.658 493.893 229.411C494.036 229.163 494.107 228.903 494.107 228.631V227.71C494.064 227.761 493.97 227.808 493.825 227.851C493.683 227.891 493.518 227.926 493.331 227.957C493.146 227.986 492.966 228.011 492.79 228.034C492.616 228.054 492.476 228.071 492.368 228.085C492.107 228.119 491.862 228.175 491.635 228.251C491.411 228.325 491.229 228.437 491.089 228.588C490.953 228.736 490.885 228.937 490.885 229.193C490.885 229.543 491.014 229.807 491.273 229.986C491.534 230.162 491.865 230.25 492.266 230.25ZM499.794 224.455V225.307H496.402V224.455H499.794ZM497.391 222.886H498.397V229.125C498.397 229.409 498.438 229.622 498.52 229.764C498.605 229.903 498.713 229.997 498.844 230.045C498.978 230.091 499.118 230.114 499.266 230.114C499.377 230.114 499.468 230.108 499.539 230.097C499.61 230.082 499.667 230.071 499.709 230.062L499.914 230.966C499.846 230.991 499.75 231.017 499.628 231.043C499.506 231.071 499.351 231.085 499.164 231.085C498.88 231.085 498.601 231.024 498.328 230.902C498.059 230.78 497.834 230.594 497.655 230.344C497.479 230.094 497.391 229.778 497.391 229.398V222.886Z" fill="black" fill-opacity="0.4"/>
<path d="M568.007 224.455C567.956 224.023 567.749 223.688 567.385 223.449C567.021 223.21 566.575 223.091 566.047 223.091C565.661 223.091 565.323 223.153 565.033 223.278C564.746 223.403 564.521 223.575 564.36 223.794C564.2 224.013 564.121 224.261 564.121 224.54C564.121 224.773 564.176 224.973 564.287 225.141C564.401 225.305 564.546 225.443 564.722 225.554C564.898 225.662 565.083 225.751 565.276 225.822C565.469 225.891 565.646 225.946 565.808 225.989L566.695 226.227C566.922 226.287 567.175 226.369 567.453 226.474C567.735 226.58 568.003 226.723 568.259 226.905C568.517 227.084 568.73 227.314 568.898 227.595C569.066 227.876 569.149 228.222 569.149 228.631C569.149 229.102 569.026 229.528 568.779 229.909C568.534 230.29 568.176 230.592 567.705 230.817C567.236 231.041 566.666 231.153 565.996 231.153C565.371 231.153 564.83 231.053 564.372 230.851C563.918 230.649 563.56 230.368 563.298 230.007C563.04 229.646 562.894 229.227 562.86 228.75H563.95C563.979 229.08 564.09 229.352 564.283 229.568C564.479 229.781 564.726 229.94 565.024 230.045C565.325 230.148 565.649 230.199 565.996 230.199C566.399 230.199 566.762 230.134 567.083 230.003C567.404 229.869 567.658 229.685 567.845 229.449C568.033 229.21 568.127 228.932 568.127 228.614C568.127 228.324 568.046 228.088 567.884 227.906C567.722 227.724 567.509 227.577 567.244 227.463C566.98 227.349 566.695 227.25 566.388 227.165L565.314 226.858C564.632 226.662 564.093 226.382 563.695 226.018C563.297 225.655 563.098 225.179 563.098 224.591C563.098 224.102 563.23 223.676 563.494 223.312C563.762 222.946 564.119 222.662 564.568 222.46C565.02 222.256 565.524 222.153 566.081 222.153C566.644 222.153 567.144 222.254 567.581 222.456C568.019 222.655 568.365 222.928 568.621 223.274C568.879 223.621 569.016 224.014 569.03 224.455H568.007ZM574.876 228.324V224.455H575.881V231H574.876V229.892H574.807C574.654 230.224 574.415 230.507 574.091 230.74C573.768 230.97 573.358 231.085 572.864 231.085C572.455 231.085 572.091 230.996 571.773 230.817C571.455 230.635 571.205 230.362 571.023 229.999C570.841 229.632 570.751 229.17 570.751 228.614V224.455H571.756V228.545C571.756 229.023 571.89 229.403 572.157 229.688C572.427 229.972 572.77 230.114 573.188 230.114C573.438 230.114 573.692 230.05 573.951 229.922C574.212 229.794 574.431 229.598 574.607 229.334C574.786 229.07 574.876 228.733 574.876 228.324ZM578.729 227.062V231H577.723V224.455H578.695V225.477H578.78C578.933 225.145 579.166 224.878 579.479 224.676C579.791 224.472 580.195 224.369 580.689 224.369C581.132 224.369 581.52 224.46 581.852 224.642C582.185 224.821 582.443 225.094 582.628 225.46C582.813 225.824 582.905 226.284 582.905 226.841V231H581.899V226.909C581.899 226.395 581.766 225.994 581.499 225.707C581.232 225.418 580.865 225.273 580.399 225.273C580.078 225.273 579.791 225.342 579.539 225.482C579.289 225.621 579.091 225.824 578.946 226.091C578.801 226.358 578.729 226.682 578.729 227.062Z" fill="black" fill-opacity="0.4"/>
<path d="M65 157C73.7319 150.386 93.6514 137.323 103.475 137.984C115.754 138.811 126.396 148.732 140.312 148.732C154.229 148.732 166 123.102 182.88 129.717C219.198 143.947 210.713 121.449 243.457 129.717C269.653 136.331 294.211 128.063 303.216 123.102C313.585 118.693 342.018 110.37 372.798 112.354C411.273 114.835 442.38 112.354 458.752 96.6456C464.094 91.5207 488.222 73.496 517.692 80.1102C547.162 86.7244 579.088 55.3071 584 52" stroke="#1C1C1C" stroke-width="3" stroke-linecap="round" stroke-linejoin="round"/>
<path d="M55 145.908C62 137.741 83 122.008 111 124.408C146 127.408 157.861 142.766 166.5 145.908C197 157 192 145.908 222.5 116.408C266.577 73.7758 276 116.408 300.5 116.408C317.5 116.408 323.235 83.429 372.5 95.4076C395.5 101 416 100.408 426.5 87.4076C437 74.4076 469.5 64.4076 492 70.4076C514.5 76.4076 531.104 70.8549 536.5 67.4076C554.5 55.9076 568 64.9076 585 74.4076" stroke="#A8C5DA" stroke-width="3" stroke-linecap="round" stroke-linejoin="round"/>
<g filter="url(#filter0_d_3812_1665)">
<circle cx="3" cy="3" r="4.5" transform="matrix(-1 0 0 1 411 94)" fill="#A8C5DA" stroke="white" stroke-width="3"/>
</g>
<rect x="361" y="59" width="95" height="28" rx="8" fill="black" fill-opacity="0.8"/>
<path d="M370.399 77V68.2727H375.632V69.2102H371.455V72.1591H375.24V73.0966H371.455V77H370.399ZM377.235 77V70.4545H378.206V71.4432H378.275C378.394 71.1193 378.61 70.8565 378.922 70.6548C379.235 70.4531 379.587 70.3523 379.979 70.3523C380.053 70.3523 380.145 70.3537 380.256 70.3565C380.367 70.3594 380.451 70.3636 380.508 70.3693V71.392C380.474 71.3835 380.395 71.3707 380.273 71.3537C380.154 71.3338 380.028 71.3239 379.894 71.3239C379.576 71.3239 379.292 71.3906 379.042 71.5241C378.795 71.6548 378.599 71.8366 378.454 72.0696C378.312 72.2997 378.241 72.5625 378.241 72.858V77H377.235ZM381.7 77V70.4545H382.705V77H381.7ZM382.211 69.3636C382.015 69.3636 381.846 69.2969 381.704 69.1634C381.565 69.0298 381.495 68.8693 381.495 68.6818C381.495 68.4943 381.565 68.3338 381.704 68.2003C381.846 68.0668 382.015 68 382.211 68C382.407 68 382.575 68.0668 382.714 68.2003C382.856 68.3338 382.927 68.4943 382.927 68.6818C382.927 68.8693 382.856 69.0298 382.714 69.1634C382.575 69.2969 382.407 69.3636 382.211 69.3636ZM385.28 77.0682C385.07 77.0682 384.89 76.9929 384.739 76.8423C384.589 76.6918 384.513 76.5114 384.513 76.3011C384.513 76.0909 384.589 75.9105 384.739 75.7599C384.89 75.6094 385.07 75.5341 385.28 75.5341C385.491 75.5341 385.671 75.6094 385.822 75.7599C385.972 75.9105 386.047 76.0909 386.047 76.3011C386.047 76.4403 386.012 76.5682 385.941 76.6847C385.873 76.8011 385.78 76.8949 385.664 76.9659C385.55 77.0341 385.422 77.0682 385.28 77.0682ZM385.28 72.2102C385.07 72.2102 384.89 72.1349 384.739 71.9844C384.589 71.8338 384.513 71.6534 384.513 71.4432C384.513 71.233 384.589 71.0526 384.739 70.902C384.89 70.7514 385.07 70.6761 385.28 70.6761C385.491 70.6761 385.671 70.7514 385.822 70.902C385.972 71.0526 386.047 71.233 386.047 71.4432C386.047 71.5824 386.012 71.7102 385.941 71.8267C385.873 71.9432 385.78 72.0369 385.664 72.108C385.55 72.1761 385.422 72.2102 385.28 72.2102ZM393.937 77.1193C393.437 77.1193 392.987 77.0199 392.586 76.821C392.186 76.6222 391.865 76.3494 391.623 76.0028C391.382 75.6562 391.25 75.2614 391.227 74.8182H392.25C392.29 75.2131 392.469 75.5398 392.787 75.7983C393.108 76.054 393.491 76.1818 393.937 76.1818C394.295 76.1818 394.613 76.098 394.892 75.9304C395.173 75.7628 395.393 75.5327 395.552 75.2401C395.714 74.9446 395.795 74.6108 395.795 74.2386C395.795 73.858 395.711 73.5185 395.544 73.2202C395.379 72.919 395.152 72.6818 394.862 72.5085C394.572 72.3352 394.241 72.2472 393.869 72.2443C393.602 72.2415 393.328 72.2827 393.047 72.3679C392.765 72.4503 392.534 72.5568 392.352 72.6875L391.363 72.5682L391.892 68.2727H396.426V69.2102H392.778L392.471 71.7841H392.523C392.702 71.642 392.926 71.5241 393.196 71.4304C393.466 71.3366 393.747 71.2898 394.04 71.2898C394.574 71.2898 395.05 71.4176 395.467 71.6733C395.888 71.9261 396.217 72.2727 396.456 72.7131C396.697 73.1534 396.818 73.6562 396.818 74.2216C396.818 74.7784 396.693 75.2756 396.443 75.7131C396.196 76.1477 395.855 76.4915 395.42 76.7443C394.986 76.9943 394.491 77.1193 393.937 77.1193ZM399.7 75.8068L399.632 76.267C399.583 76.5909 399.509 76.9375 399.41 77.3068C399.313 77.6761 399.213 78.0241 399.107 78.3509C399.002 78.6776 398.916 78.9375 398.847 79.1307H398.08C398.117 78.9489 398.166 78.7088 398.225 78.4105C398.285 78.1122 398.345 77.7784 398.404 77.4091C398.467 77.0426 398.518 76.6676 398.558 76.2841L398.609 75.8068H399.7ZM401.546 77V76.233L404.427 73.0795C404.765 72.7102 405.043 72.3892 405.262 72.1165C405.481 71.8409 405.643 71.5824 405.748 71.3409C405.856 71.0966 405.91 70.8409 405.91 70.5739C405.91 70.267 405.836 70.0014 405.688 69.777C405.543 69.5526 405.344 69.3793 405.091 69.2571C404.839 69.1349 404.555 69.0739 404.239 69.0739C403.904 69.0739 403.611 69.1435 403.361 69.2827C403.114 69.419 402.922 69.6108 402.786 69.858C402.653 70.1051 402.586 70.3949 402.586 70.7273H401.58C401.58 70.2159 401.698 69.767 401.934 69.3807C402.17 68.9943 402.491 68.6932 402.897 68.4773C403.306 68.2614 403.765 68.1534 404.273 68.1534C404.785 68.1534 405.238 68.2614 405.633 68.4773C406.028 68.6932 406.337 68.9844 406.562 69.3509C406.786 69.7173 406.898 70.125 406.898 70.5739C406.898 70.8949 406.84 71.2088 406.724 71.5156C406.61 71.8196 406.411 72.1591 406.127 72.5341C405.846 72.9062 405.455 73.3608 404.955 73.8977L402.995 75.9943V76.0625H407.052V77H401.546ZM411.539 77.1193C411.039 77.1193 410.589 77.0199 410.188 76.821C409.787 76.6222 409.466 76.3494 409.225 76.0028C408.983 75.6562 408.851 75.2614 408.829 74.8182H409.851C409.891 75.2131 410.07 75.5398 410.388 75.7983C410.709 76.054 411.093 76.1818 411.539 76.1818C411.897 76.1818 412.215 76.098 412.493 75.9304C412.775 75.7628 412.995 75.5327 413.154 75.2401C413.316 74.9446 413.397 74.6108 413.397 74.2386C413.397 73.858 413.313 73.5185 413.145 73.2202C412.981 72.919 412.753 72.6818 412.464 72.5085C412.174 72.3352 411.843 72.2472 411.471 72.2443C411.204 72.2415 410.93 72.2827 410.648 72.3679C410.367 72.4503 410.135 72.5568 409.954 72.6875L408.965 72.5682L409.493 68.2727H414.028V69.2102H410.38L410.073 71.7841H410.124C410.303 71.642 410.528 71.5241 410.797 71.4304C411.067 71.3366 411.349 71.2898 411.641 71.2898C412.175 71.2898 412.651 71.4176 413.069 71.6733C413.489 71.9261 413.819 72.2727 414.057 72.7131C414.299 73.1534 414.42 73.6562 414.42 74.2216C414.42 74.7784 414.295 75.2756 414.045 75.7131C413.797 76.1477 413.456 76.4915 413.022 76.7443C412.587 76.9943 412.093 77.1193 411.539 77.1193ZM419.01 77.1193C418.652 77.1136 418.294 77.0455 417.936 76.9148C417.578 76.7841 417.252 76.5639 416.956 76.2543C416.661 75.9418 416.423 75.5199 416.244 74.9886C416.066 74.4545 415.976 73.7841 415.976 72.9773C415.976 72.2045 416.048 71.5199 416.193 70.9233C416.338 70.3239 416.548 69.8196 416.824 69.4105C417.1 68.9986 417.432 68.6861 417.821 68.473C418.213 68.2599 418.655 68.1534 419.146 68.1534C419.635 68.1534 420.07 68.2514 420.45 68.4474C420.834 68.6406 421.146 68.9105 421.388 69.2571C421.629 69.6037 421.786 70.0028 421.857 70.4545H420.817C420.72 70.0625 420.533 69.7372 420.254 69.4787C419.976 69.2202 419.607 69.0909 419.146 69.0909C418.47 69.0909 417.938 69.3849 417.548 69.973C417.162 70.5611 416.968 71.3864 416.965 72.4489H417.033C417.192 72.2074 417.381 72.0014 417.6 71.831C417.821 71.6577 418.066 71.5241 418.333 71.4304C418.6 71.3366 418.882 71.2898 419.181 71.2898C419.681 71.2898 420.138 71.4148 420.553 71.6648C420.968 71.9119 421.3 72.2543 421.55 72.6918C421.8 73.1264 421.925 73.625 421.925 74.1875C421.925 74.7273 421.804 75.2216 421.563 75.6705C421.321 76.1165 420.982 76.4716 420.544 76.7358C420.11 76.9972 419.598 77.125 419.01 77.1193ZM419.01 76.1818C419.368 76.1818 419.689 76.0923 419.973 75.9134C420.26 75.7344 420.486 75.4943 420.651 75.1932C420.818 74.892 420.902 74.5568 420.902 74.1875C420.902 73.8267 420.821 73.4986 420.659 73.2031C420.5 72.9048 420.28 72.6676 419.999 72.4915C419.72 72.3153 419.402 72.2273 419.044 72.2273C418.774 72.2273 418.523 72.2812 418.29 72.3892C418.057 72.4943 417.852 72.6392 417.676 72.8239C417.503 73.0085 417.367 73.2202 417.267 73.4588C417.168 73.6946 417.118 73.9432 417.118 74.2045C417.118 74.5511 417.199 74.875 417.361 75.1761C417.526 75.4773 417.75 75.7202 418.034 75.9048C418.321 76.0895 418.646 76.1818 419.01 76.1818ZM424.708 75.8068L424.639 76.267C424.591 76.5909 424.517 76.9375 424.418 77.3068C424.321 77.6761 424.22 78.0241 424.115 78.3509C424.01 78.6776 423.923 78.9375 423.855 79.1307H423.088C423.125 78.9489 423.173 78.7088 423.233 78.4105C423.293 78.1122 423.352 77.7784 423.412 77.4091C423.475 77.0426 423.526 76.6676 423.566 76.2841L423.617 75.8068H424.708ZM429.105 77.1193C428.605 77.1193 428.155 77.0199 427.754 76.821C427.354 76.6222 427.033 76.3494 426.791 76.0028C426.55 75.6562 426.418 75.2614 426.395 74.8182H427.418C427.458 75.2131 427.637 75.5398 427.955 75.7983C428.276 76.054 428.659 76.1818 429.105 76.1818C429.463 76.1818 429.781 76.098 430.06 75.9304C430.341 75.7628 430.561 75.5327 430.72 75.2401C430.882 74.9446 430.963 74.6108 430.963 74.2386C430.963 73.858 430.879 73.5185 430.712 73.2202C430.547 72.919 430.32 72.6818 430.03 72.5085C429.74 72.3352 429.409 72.2472 429.037 72.2443C428.77 72.2415 428.496 72.2827 428.215 72.3679C427.933 72.4503 427.702 72.5568 427.52 72.6875L426.531 72.5682L427.06 68.2727H431.594V69.2102H427.946L427.639 71.7841H427.691C427.869 71.642 428.094 71.5241 428.364 71.4304C428.634 71.3366 428.915 71.2898 429.208 71.2898C429.742 71.2898 430.218 71.4176 430.635 71.6733C431.056 71.9261 431.385 72.2727 431.624 72.7131C431.865 73.1534 431.986 73.6562 431.986 74.2216C431.986 74.7784 431.861 75.2756 431.611 75.7131C431.364 76.1477 431.023 76.4915 430.588 76.7443C430.154 76.9943 429.659 77.1193 429.105 77.1193ZM436.457 68.1534C436.815 68.1562 437.173 68.2244 437.531 68.358C437.889 68.4915 438.216 68.7131 438.511 69.0227C438.807 69.3295 439.044 69.7486 439.223 70.2798C439.402 70.8111 439.491 71.4773 439.491 72.2784C439.491 73.054 439.417 73.7429 439.27 74.3452C439.125 74.9446 438.915 75.4503 438.639 75.8622C438.366 76.2741 438.034 76.5866 437.642 76.7997C437.253 77.0128 436.812 77.1193 436.321 77.1193C435.832 77.1193 435.396 77.0227 435.013 76.8295C434.632 76.6335 434.319 76.3622 434.075 76.0156C433.834 75.6662 433.679 75.2614 433.611 74.8011H434.65C434.744 75.2017 434.93 75.5327 435.209 75.794C435.49 76.0526 435.861 76.1818 436.321 76.1818C436.994 76.1818 437.525 75.8878 437.915 75.2997C438.307 74.7116 438.503 73.8807 438.503 72.8068H438.434C438.275 73.0455 438.086 73.2514 437.868 73.4247C437.649 73.598 437.406 73.7315 437.139 73.8253C436.872 73.919 436.588 73.9659 436.287 73.9659C435.787 73.9659 435.328 73.8423 434.91 73.5952C434.496 73.3452 434.163 73.0028 433.913 72.5682C433.666 72.1307 433.542 71.6307 433.542 71.0682C433.542 70.5341 433.662 70.0455 433.9 69.6023C434.142 69.1562 434.48 68.8011 434.915 68.5369C435.352 68.2727 435.866 68.1449 436.457 68.1534ZM436.457 69.0909C436.099 69.0909 435.777 69.1804 435.49 69.3594C435.206 69.5355 434.98 69.7741 434.812 70.0753C434.648 70.3736 434.565 70.7045 434.565 71.0682C434.565 71.4318 434.645 71.7628 434.804 72.0611C434.966 72.3565 435.186 72.5923 435.464 72.7685C435.746 72.9418 436.065 73.0284 436.423 73.0284C436.693 73.0284 436.944 72.9759 437.177 72.8707C437.41 72.7628 437.613 72.6165 437.787 72.4318C437.963 72.2443 438.101 72.0327 438.2 71.7969C438.3 71.5582 438.349 71.3097 438.349 71.0511C438.349 70.7102 438.267 70.3906 438.102 70.0923C437.94 69.794 437.716 69.5526 437.429 69.3679C437.145 69.1832 436.821 69.0909 436.457 69.0909ZM443.963 77.1193C443.377 77.1193 442.86 77.0156 442.411 76.8082C441.965 76.598 441.617 76.3097 441.367 75.9432C441.117 75.5739 440.994 75.1534 440.997 74.6818C440.994 74.3125 441.066 73.9716 441.214 73.6591C441.362 73.3437 441.563 73.081 441.819 72.8707C442.078 72.6577 442.366 72.5227 442.684 72.4659V72.4148C442.267 72.3068 441.934 72.0724 441.687 71.7116C441.44 71.348 441.318 70.9347 441.32 70.4716C441.318 70.0284 441.43 69.6321 441.657 69.2827C441.884 68.9332 442.197 68.6577 442.595 68.456C442.995 68.2543 443.451 68.1534 443.963 68.1534C444.468 68.1534 444.92 68.2543 445.318 68.456C445.715 68.6577 446.028 68.9332 446.255 69.2827C446.485 69.6321 446.602 70.0284 446.605 70.4716C446.602 70.9347 446.475 71.348 446.225 71.7116C445.978 72.0724 445.65 72.3068 445.241 72.4148V72.4659C445.556 72.5227 445.84 72.6577 446.093 72.8707C446.346 73.081 446.548 73.3437 446.698 73.6591C446.849 73.9716 446.926 74.3125 446.928 74.6818C446.926 75.1534 446.798 75.5739 446.545 75.9432C446.295 76.3097 445.947 76.598 445.501 76.8082C445.058 77.0156 444.545 77.1193 443.963 77.1193ZM443.963 76.1818C444.357 76.1818 444.698 76.1179 444.985 75.9901C445.272 75.8622 445.494 75.6818 445.65 75.4489C445.806 75.2159 445.886 74.9432 445.889 74.6307C445.886 74.3011 445.801 74.0099 445.633 73.7571C445.465 73.5043 445.237 73.3054 444.947 73.1605C444.66 73.0156 444.332 72.9432 443.963 72.9432C443.59 72.9432 443.258 73.0156 442.965 73.1605C442.676 73.3054 442.447 73.5043 442.279 73.7571C442.115 74.0099 442.034 74.3011 442.036 74.6307C442.034 74.9432 442.109 75.2159 442.262 75.4489C442.419 75.6818 442.642 75.8622 442.931 75.9901C443.221 76.1179 443.565 76.1818 443.963 76.1818ZM443.963 72.0398C444.275 72.0398 444.552 71.9773 444.794 71.8523C445.038 71.7273 445.23 71.5526 445.369 71.3281C445.508 71.1037 445.579 70.8409 445.582 70.5398C445.579 70.2443 445.509 69.9872 445.373 69.7685C445.237 69.5469 445.048 69.3764 444.806 69.2571C444.565 69.1349 444.284 69.0739 443.963 69.0739C443.636 69.0739 443.35 69.1349 443.106 69.2571C442.862 69.3764 442.673 69.5469 442.539 69.7685C442.406 69.9872 442.34 70.2443 442.343 70.5398C442.34 70.8409 442.407 71.1037 442.544 71.3281C442.683 71.5526 442.874 71.7273 443.119 71.8523C443.363 71.9773 443.644 72.0398 443.963 72.0398Z" fill="white"/>
<defs>
<filter id="filter0_d_3812_1665" x="400" y="91" width="16" height="16" filterUnits="userSpaceOnUse" color-interpolation-filters="sRGB">
<feFlood flood-opacity="0" result="BackgroundImageFix"/>
<feColorMatrix in="SourceAlpha" type="matrix" values="0 0 0 0 0 0 0 0 0 0 0 0 0 0 0 0 0 0 127 0" result="hardAlpha"/>
<feOffset dy="2"/>
<feGaussianBlur stdDeviation="1"/>
<feComposite in2="hardAlpha" operator="out"/>
<feColorMatrix type="matrix" values="0 0 0 0 0 0 0 0 0 0 0 0 0 0 0 0 0 0 0.1 0"/>
<feBlend mode="normal" in2="BackgroundImageFix" result="effect1_dropShadow_3812_1665"/>
<feBlend mode="normal" in="SourceGraphic" in2="effect1_dropShadow_3812_1665" result="shape"/>
</filter>
</defs>
</svg>
