<svg width="336" height="120" viewBox="0 0 336 120" fill="none" xmlns="http://www.w3.org/2000/svg">
<path d="M19 56C19 53.7909 20.7909 52 23 52H33C35.2091 52 37 53.7909 37 56V120H19V56Z" fill="#BAEDBD"/>
<path d="M75 43C75 40.7909 76.7909 39 79 39H89C91.2091 39 93 40.7909 93 43V120H75V43Z" fill="#C6C7F8"/>
<path d="M131 53C131 50.7909 132.791 49 135 49H145C147.209 49 149 50.7909 149 53V120H131V53Z" fill="#1C1C1C"/>
<path d="M187 4C187 1.79086 188.791 0 191 0H201C203.209 0 205 1.79086 205 4V120H187V4Z" fill="#B1E3FF"/>
<path d="M243 89C243 86.7909 244.791 85 247 85H257C259.209 85 261 86.7909 261 89V120H243V89Z" fill="#95A4FC"/>
<path d="M299 36C299 33.7909 300.791 32 303 32H313C315.209 32 317 33.7909 317 36V120H299V36Z" fill="#A1E3CB"/>
</svg>
